<svg width="768" height="768" viewBox="0 0 768 768" fill="none" xmlns="http://www.w3.org/2000/svg">
<circle cx="384" cy="384" r="384" fill="#222222"/>
<path d="M89.9735 308.303C54.695 308.303 30 333.166 30 368.445C30 403.723 54.863 428.418 90.1415 428.418C121.22 428.418 140.875 408.091 146.923 387.764V361.053H84.4298V382.22H120.884C116.516 395.492 106.605 403.051 92.3254 403.051C71.6623 403.051 59.2308 390.284 59.2308 368.445C59.2308 347.95 71.4943 334.846 89.9735 334.846C100.725 334.846 108.789 339.046 113.157 346.942H144.907C138.692 322.751 118.196 308.303 89.9735 308.303Z" fill="white"/>
<path d="M89.9735 308.303C54.695 308.303 30 333.166 30 368.445C30 403.723 54.863 428.418 90.1415 428.418C121.22 428.418 140.875 408.091 146.923 387.764V361.053H84.4298V382.22H120.884C116.516 395.492 106.605 403.051 92.3254 403.051C71.6623 403.051 59.2308 390.284 59.2308 368.445C59.2308 347.95 71.4943 334.846 89.9735 334.846C100.725 334.846 108.789 339.046 113.157 346.942H144.907C138.692 322.751 118.196 308.303 89.9735 308.303Z" fill="white"/>
<path d="M181.482 384.068C181.482 367.941 189.378 363.237 202.986 363.237H210.881V332.83C198.282 332.83 188.034 339.55 181.482 349.462V333.838H152.756V427.578H181.482V384.068Z" fill="white"/>
<path d="M181.482 384.068C181.482 367.941 189.378 363.237 202.986 363.237H210.881V332.83C198.282 332.83 188.034 339.55 181.482 349.462V333.838H152.756V427.578H181.482V384.068Z" fill="white"/>
<path d="M306.257 380.708C306.257 350.973 285.09 332.494 257.539 332.494C230.156 332.494 208.821 350.973 208.821 380.708C208.821 410.443 229.652 428.922 257.203 428.922C284.754 428.922 306.257 410.443 306.257 380.708ZM238.052 380.708C238.052 364.749 247.123 357.357 257.539 357.357C267.618 357.357 277.026 364.749 277.026 380.708C277.026 396.5 267.45 404.059 257.203 404.059C246.787 404.059 238.052 396.5 238.052 380.708Z" fill="white"/>
<path d="M306.257 380.708C306.257 350.973 285.09 332.494 257.539 332.494C230.156 332.494 208.821 350.973 208.821 380.708C208.821 410.443 229.652 428.922 257.203 428.922C284.754 428.922 306.257 410.443 306.257 380.708ZM238.052 380.708C238.052 364.749 247.123 357.357 257.539 357.357C267.618 357.357 277.026 364.749 277.026 380.708C277.026 396.5 267.45 404.059 257.203 404.059C246.787 404.059 238.052 396.5 238.052 380.708Z" fill="white"/>
<path d="M403.981 333.838H375.255V384.74C375.255 397.508 368.199 404.563 357.111 404.563C346.36 404.563 339.136 397.508 339.136 384.74V333.838H310.577V388.604C310.577 413.635 325.193 428.586 346.864 428.586C359.463 428.586 369.543 422.875 375.255 414.811V427.578H403.981V333.838Z" fill="white"/>
<path d="M403.981 333.838H375.255V384.74C375.255 397.508 368.199 404.563 357.111 404.563C346.36 404.563 339.136 397.508 339.136 384.74V333.838H310.577V388.604C310.577 413.635 325.193 428.586 346.864 428.586C359.463 428.586 369.543 422.875 375.255 414.811V427.578H403.981V333.838Z" fill="white"/>
<path d="M443.263 347.11V333.838H414.536V472.264H443.263V414.475C448.471 422.371 458.382 428.922 472.158 428.922C495.173 428.922 513.484 410.107 513.484 380.54C513.484 350.973 495.173 332.494 472.158 332.494C458.382 332.494 448.471 338.878 443.263 347.11ZM484.253 380.54C484.253 395.492 474.51 403.891 463.59 403.891C452.839 403.891 443.095 395.66 443.095 380.708C443.095 365.757 452.839 357.525 463.59 357.525C474.51 357.525 484.253 365.589 484.253 380.54Z" fill="white"/>
<path d="M443.263 347.11V333.838H414.536V472.264H443.263V414.475C448.471 422.371 458.382 428.922 472.158 428.922C495.173 428.922 513.484 410.107 513.484 380.54C513.484 350.973 495.173 332.494 472.158 332.494C458.382 332.494 448.471 338.878 443.263 347.11ZM484.253 380.54C484.253 395.492 474.51 403.891 463.59 403.891C452.839 403.891 443.095 395.66 443.095 380.708C443.095 365.757 452.839 357.525 463.59 357.525C474.51 357.525 484.253 365.589 484.253 380.54Z" fill="white"/>
<path d="M543.968 357.525C543.968 344.235 541.244 336.68 553.407 334.955C566.216 333.139 577.471 345.729 577.471 359.019V441.199H542.203L543.968 357.525Z" fill="white"/>
<path d="M543.968 357.525C543.968 344.235 541.244 336.68 553.407 334.955C566.216 333.139 577.471 345.729 577.471 359.019V441.199H542.203L543.968 357.525Z" fill="white"/>
<path d="M587.46 359.019C587.46 345.603 593.795 334.955 607.211 334.955C620.626 334.955 621.154 343.128 622.97 352.662L620.7 441.199H587.46V359.019Z" fill="white"/>
<path d="M587.46 359.019C587.46 345.603 593.795 334.955 607.211 334.955C620.626 334.955 621.154 343.128 622.97 352.662L620.7 441.199H587.46V359.019Z" fill="white"/>
<path d="M571.115 313.615C571.115 323.896 562.984 332.231 552.953 332.231C542.923 332.231 534.792 323.896 534.792 313.615C534.792 303.334 542.923 295 552.953 295C562.984 295 571.115 303.334 571.115 313.615Z" fill="white"/>
<path d="M571.115 313.615C571.115 323.896 562.984 332.231 552.953 332.231C542.923 332.231 534.792 323.896 534.792 313.615C534.792 303.334 542.923 295 552.953 295C562.984 295 571.115 303.334 571.115 313.615Z" fill="white"/>
<path d="M624.691 313.615C624.691 323.896 616.357 332.231 606.076 332.231C595.794 332.231 587.46 323.896 587.46 313.615C587.46 303.334 595.794 295 606.076 295C616.357 295 624.691 303.334 624.691 313.615Z" fill="white"/>
<path d="M624.691 313.615C624.691 323.896 616.357 332.231 606.076 332.231C595.794 332.231 587.46 323.896 587.46 313.615C587.46 303.334 595.794 295 606.076 295C616.357 295 624.691 303.334 624.691 313.615Z" fill="white"/>
<path d="M690.962 355.509C700.538 355.509 708.601 361.389 708.601 371.637H672.651C674.331 361.221 681.554 355.509 690.962 355.509ZM735.816 396.5H705.241C702.889 401.539 698.354 405.571 690.29 405.571C681.05 405.571 673.491 399.859 672.483 387.596H737.496C737.832 384.74 738 381.884 738 379.196C738 350.637 718.681 332.494 691.298 332.494C663.411 332.494 643.924 350.973 643.924 380.708C643.924 410.443 663.747 428.922 691.298 428.922C714.649 428.922 731.28 414.811 735.816 396.5Z" fill="white"/>
<path d="M690.962 355.509C700.538 355.509 708.601 361.389 708.601 371.637H672.651C674.331 361.221 681.554 355.509 690.962 355.509ZM735.816 396.5H705.241C702.889 401.539 698.354 405.571 690.29 405.571C681.05 405.571 673.491 399.859 672.483 387.596H737.496C737.832 384.74 738 381.884 738 379.196C738 350.637 718.681 332.494 691.298 332.494C663.411 332.494 643.924 350.973 643.924 380.708C643.924 410.443 663.747 428.922 691.298 428.922C714.649 428.922 731.28 414.811 735.816 396.5Z" fill="white"/>
<path d="M499.377 364.488L549.785 335.778L547.263 349.647L504.926 374.002L499.377 364.488Z" fill="white"/>
<path d="M499.377 364.488L549.785 335.778L547.263 349.647L504.926 374.002L499.377 364.488Z" fill="white"/>
<path d="M666.104 368.1L615.252 336.771L613.124 350.453L661.109 377.18L666.104 368.1Z" fill="white"/>
<path d="M666.104 368.1L615.252 336.771L613.124 350.453L661.109 377.18L666.104 368.1Z" fill="white"/>
<path d="M606.984 335.409H582.239H557.494L556.681 346.306L580.745 345.398L608.441 346.306L606.984 335.409Z" fill="white"/>
<path d="M606.984 335.409H582.239H557.494L556.681 346.306L580.745 345.398L608.441 346.306L606.984 335.409Z" fill="white"/>
<path d="M337.741 352.208V334.047H258.738L269.427 349.614L337.741 352.208Z" fill="white"/>
<path d="M337.741 352.208V334.047H258.738L269.427 349.614L337.741 352.208Z" fill="white"/>
<path d="M471.585 435.728C467.059 433.075 461.239 434.594 458.586 439.12C455.933 443.647 457.452 449.467 461.979 452.12L471.585 435.728ZM711.871 452.317C716.506 449.859 718.272 444.109 715.814 439.474C713.356 434.838 707.606 433.073 702.971 435.531L711.871 452.317ZM461.979 452.12C535.868 495.423 632.2 494.558 711.871 452.317L702.971 435.531C628.515 475.007 539.224 475.368 471.585 435.728L461.979 452.12Z" fill="#00D1FF"/>
</svg>
