<svg width="246" height="66" viewBox="0 0 246 66" fill="none" xmlns="http://www.w3.org/2000/svg">
<path d="M20.8383 4.62231C8.58046 4.62231 0 13.2611 0 25.5189C0 37.7767 8.63883 46.3572 20.8966 46.3572C31.6952 46.3572 38.5245 39.2944 40.6259 32.2315V22.9506H18.912V30.3053H31.5784C30.0608 34.9166 26.6169 37.5433 21.6554 37.5433C14.4759 37.5433 10.1565 33.1071 10.1565 25.5189C10.1565 18.3977 14.4175 13.8448 20.8383 13.8448C24.574 13.8448 27.3758 15.3041 28.8934 18.0475H39.9254C37.7657 9.64217 30.6445 4.62231 20.8383 4.62231Z" fill="white"/>
<path d="M20.8383 4.62231C8.58046 4.62231 0 13.2611 0 25.5189C0 37.7767 8.63883 46.3572 20.8966 46.3572C31.6952 46.3572 38.5245 39.2944 40.6259 32.2315V22.9506H18.912V30.3053H31.5784C30.0608 34.9166 26.6169 37.5433 21.6554 37.5433C14.4759 37.5433 10.1565 33.1071 10.1565 25.5189C10.1565 18.3977 14.4175 13.8448 20.8383 13.8448C24.574 13.8448 27.3758 15.3041 28.8934 18.0475H39.9254C37.7657 9.64217 30.6445 4.62231 20.8383 4.62231Z" fill="#1A1A1A"/>
<path d="M52.6338 30.9474C52.6338 25.3438 55.3772 23.7095 60.1052 23.7095H62.8486V13.1444C58.4708 13.1444 54.9102 15.4792 52.6338 18.9231V13.4946H42.6524V46.0653H52.6338V30.9474Z" fill="white"/>
<path d="M52.6338 30.9474C52.6338 25.3438 55.3772 23.7095 60.1052 23.7095H62.8486V13.1444C58.4708 13.1444 54.9102 15.4792 52.6338 18.9231V13.4946H42.6524V46.0653H52.6338V30.9474Z" fill="#1A1A1A"/>
<path d="M95.9875 29.78C95.9875 19.4484 88.6328 13.0277 79.0601 13.0277C69.5457 13.0277 62.1326 19.4484 62.1326 29.78C62.1326 40.1116 69.3706 46.5323 78.9433 46.5323C88.5161 46.5323 95.9875 40.1116 95.9875 29.78ZM72.2891 29.78C72.2891 24.2348 75.4411 21.6665 79.0601 21.6665C82.5623 21.6665 85.8311 24.2348 85.8311 29.78C85.8311 35.2668 82.5039 37.8935 78.9433 37.8935C75.3244 37.8935 72.2891 35.2668 72.2891 29.78Z" fill="white"/>
<path d="M95.9875 29.78C95.9875 19.4484 88.6328 13.0277 79.0601 13.0277C69.5457 13.0277 62.1326 19.4484 62.1326 29.78C62.1326 40.1116 69.3706 46.5323 78.9433 46.5323C88.5161 46.5323 95.9875 40.1116 95.9875 29.78ZM72.2891 29.78C72.2891 24.2348 75.4411 21.6665 79.0601 21.6665C82.5623 21.6665 85.8311 24.2348 85.8311 29.78C85.8311 35.2668 82.5039 37.8935 78.9433 37.8935C75.3244 37.8935 72.2891 35.2668 72.2891 29.78Z" fill="#1A1A1A"/>
<path d="M129.943 13.4946H119.961V31.1809C119.961 35.617 117.51 38.0686 113.657 38.0686C109.922 38.0686 107.412 35.617 107.412 31.1809V13.4946H97.4887V32.5234C97.4887 41.2206 102.567 46.4156 110.097 46.4156C114.475 46.4156 117.977 44.431 119.961 41.6292V46.0653H129.943V13.4946Z" fill="white"/>
<path d="M129.943 13.4946H119.961V31.1809C119.961 35.617 117.51 38.0686 113.657 38.0686C109.922 38.0686 107.412 35.617 107.412 31.1809V13.4946H97.4887V32.5234C97.4887 41.2206 102.567 46.4156 110.097 46.4156C114.475 46.4156 117.977 44.431 119.961 41.6292V46.0653H129.943V13.4946Z" fill="#1A1A1A"/>
<path d="M143.591 18.1059V13.4946H133.61V61.5919H143.591V41.5125C145.401 44.2559 148.845 46.5323 153.631 46.5323C161.628 46.5323 167.99 39.9948 167.99 29.7216C167.99 19.4484 161.628 13.0277 153.631 13.0277C148.845 13.0277 145.401 15.2457 143.591 18.1059ZM157.834 29.7216C157.834 34.9166 154.448 37.8351 150.654 37.8351C146.918 37.8351 143.533 34.975 143.533 29.78C143.533 24.585 146.918 21.7249 150.654 21.7249C154.448 21.7249 157.834 24.5266 157.834 29.7216Z" fill="white"/>
<path d="M143.591 18.1059V13.4946H133.61V61.5919H143.591V41.5125C145.401 44.2559 148.845 46.5323 153.631 46.5323C161.628 46.5323 167.99 39.9948 167.99 29.7216C167.99 19.4484 161.628 13.0277 153.631 13.0277C148.845 13.0277 145.401 15.2457 143.591 18.1059ZM157.834 29.7216C157.834 34.9166 154.448 37.8351 150.654 37.8351C146.918 37.8351 143.533 34.975 143.533 29.78C143.533 24.585 146.918 21.7249 150.654 21.7249C154.448 21.7249 157.834 24.5266 157.834 29.7216Z" fill="#1A1A1A"/>
<path d="M178.582 21.7249C178.582 17.1071 177.636 14.482 181.862 13.8827C186.312 13.2517 190.223 17.6261 190.223 22.2439V50.7981H177.969L178.582 21.7249Z" fill="white"/>
<path d="M178.582 21.7249C178.582 17.1071 177.636 14.482 181.862 13.8827C186.312 13.2517 190.223 17.6261 190.223 22.2439V50.7981H177.969L178.582 21.7249Z" fill="#1A1A1A"/>
<path d="M193.694 22.2439C193.694 17.5826 195.895 13.8827 200.556 13.8827C205.218 13.8827 205.401 16.7224 206.032 20.0353L205.243 50.7981H193.694V22.2439Z" fill="white"/>
<path d="M193.694 22.2439C193.694 17.5826 195.895 13.8827 200.556 13.8827C205.218 13.8827 205.401 16.7224 206.032 20.0353L205.243 50.7981H193.694V22.2439Z" fill="#1A1A1A"/>
<path d="M188.014 6.46808C188.014 10.0403 185.189 12.9362 181.704 12.9362C178.219 12.9362 175.394 10.0403 175.394 6.46808C175.394 2.89586 178.219 0 181.704 0C185.189 0 188.014 2.89586 188.014 6.46808Z" fill="white"/>
<path d="M188.014 6.46808C188.014 10.0403 185.189 12.9362 181.704 12.9362C178.219 12.9362 175.394 10.0403 175.394 6.46808C175.394 2.89586 178.219 0 181.704 0C185.189 0 188.014 2.89586 188.014 6.46808Z" fill="#1A1A1A"/>
<path d="M206.63 6.46808C206.63 10.0403 203.734 12.9362 200.162 12.9362C196.59 12.9362 193.694 10.0403 193.694 6.46808C193.694 2.89586 196.59 0 200.162 0C203.734 0 206.63 2.89586 206.63 6.46808Z" fill="white"/>
<path d="M206.63 6.46808C206.63 10.0403 203.734 12.9362 200.162 12.9362C196.59 12.9362 193.694 10.0403 193.694 6.46808C193.694 2.89586 196.59 0 200.162 0C203.734 0 206.63 2.89586 206.63 6.46808Z" fill="#1A1A1A"/>
<path d="M229.656 21.0244C232.983 21.0244 235.785 23.0674 235.785 26.628H223.294C223.878 23.009 226.388 21.0244 229.656 21.0244ZM245.241 35.2668H234.618C233.801 37.0179 232.225 38.4188 229.423 38.4188C226.212 38.4188 223.586 36.4342 223.236 32.1732H245.825C245.942 31.1809 246 30.1886 246 29.2547C246 19.3317 239.287 13.0277 229.773 13.0277C220.084 13.0277 213.313 19.4484 213.313 29.78C213.313 40.1116 220.2 46.5323 229.773 46.5323C237.887 46.5323 243.665 41.6292 245.241 35.2668Z" fill="white"/>
<path d="M229.656 21.0244C232.983 21.0244 235.785 23.0674 235.785 26.628H223.294C223.878 23.009 226.388 21.0244 229.656 21.0244ZM245.241 35.2668H234.618C233.801 37.0179 232.225 38.4188 229.423 38.4188C226.212 38.4188 223.586 36.4342 223.236 32.1732H245.825C245.942 31.1809 246 30.1886 246 29.2547C246 19.3317 239.287 13.0277 229.773 13.0277C220.084 13.0277 213.313 19.4484 213.313 29.78C213.313 40.1116 220.2 46.5323 229.773 46.5323C237.887 46.5323 243.665 41.6292 245.241 35.2668Z" fill="#1A1A1A"/>
<path d="M163.089 24.1443L180.603 14.1686L179.727 18.9877L165.017 27.4499L163.089 24.1443Z" fill="white"/>
<path d="M163.089 24.1443L180.603 14.1686L179.727 18.9877L165.017 27.4499L163.089 24.1443Z" fill="#1A1A1A"/>
<path d="M221.019 25.399L203.35 14.5137L202.611 19.2677L219.284 28.5542L221.019 25.399Z" fill="white"/>
<path d="M221.019 25.399L203.35 14.5137L202.611 19.2677L219.284 28.5542L221.019 25.399Z" fill="#1A1A1A"/>
<path d="M200.477 14.0405H191.88H183.282L182.999 17.8267L191.361 17.5111L200.984 17.8267L200.477 14.0405Z" fill="white"/>
<path d="M200.477 14.0405H191.88H183.282L182.999 17.8267L191.361 17.5111L200.984 17.8267L200.477 14.0405Z" fill="#1A1A1A"/>
<path d="M106.927 19.8775V13.5672H79.4769L83.1907 18.976L106.927 19.8775Z" fill="white"/>
<path d="M106.927 19.8775V13.5672H79.4769L83.1907 18.976L106.927 19.8775Z" fill="#1A1A1A"/>
<path d="M153.28 49.1564C151.851 48.3186 150.013 48.7983 149.175 50.2278C148.337 51.6572 148.817 53.4952 150.246 54.3329L153.28 49.1564ZM236.78 54.3951C238.244 53.619 238.802 51.8032 238.025 50.3393C237.249 48.8755 235.433 48.318 233.97 49.0941L236.78 54.3951ZM150.246 54.3329C175.821 69.321 209.181 69.0284 236.78 54.3951L233.97 49.0941C208.017 62.8543 176.881 62.9877 153.28 49.1564L150.246 54.3329Z" fill="#00D1FF"/>
</svg>
